<mxfile host="drawio-plugin" modified="2024-05-18T10:12:10.244Z" agent="5.0 (Macintosh; Intel Mac OS X 10_15_7) AppleWebKit/537.36 (KHTML, like Gecko) Chrome/111.0.0.0 Safari/537.36" etag="ZuLmjLN51maFdbvpDNQ9" version="20.5.3" type="embed"><diagram id="_GXoPjtxWdaa6Ef2R9CW" name="Page-1"><mxGraphModel dx="1150" dy="773" grid="1" gridSize="10" guides="1" tooltips="1" connect="1" arrows="1" fold="1" page="1" pageScale="1" pageWidth="850" pageHeight="1100" math="0" shadow="0"><root><mxCell id="0"/><mxCell id="1" parent="0"/><mxCell id="2" value="" style="endArrow=classic;html=1;rounded=0;exitX=1;exitY=0.75;exitDx=0;exitDy=0;entryX=1;entryY=0.5;entryDx=0;entryDy=0;" edge="1" parent="1" source="4" target="3"><mxGeometry width="50" height="50" relative="1" as="geometry"><mxPoint x="300" y="480" as="sourcePoint"/><mxPoint x="270" y="440" as="targetPoint"/><Array as="points"><mxPoint x="440" y="520"/><mxPoint x="450" y="380"/></Array></mxGeometry></mxCell><mxCell id="3" value="" style="rounded=0;whiteSpace=wrap;html=1;" vertex="1" parent="1"><mxGeometry x="250" y="350" width="120" height="60" as="geometry"/></mxCell><mxCell id="4" value="" style="rounded=0;whiteSpace=wrap;html=1;" vertex="1" parent="1"><mxGeometry x="250" y="480" width="120" height="60" as="geometry"/></mxCell></root></mxGraphModel></diagram></mxfile>